<svg class="svg-icon" style="width: 1em;height: 1em;vertical-align: middle;fill: currentColor;overflow: hidden;" viewBox="0 0 1024 1024" version="1.1" xmlns="http://www.w3.org/2000/svg"><path d="M64 104.1c0-1.3 0.5-2.6 1.5-3.6s2.3-1.5 3.6-1.5H101c1.3 0 2.6 0.5 3.6 1.5s1.5 2.3 1.5 3.6V883H955c1.3 0 2.6 0.5 3.6 1.5s1.5 2.3 1.5 3.6V920c0 1.3-0.5 2.6-1.5 3.6s-2.3 1.5-3.6 1.5H64v-821z"  /><path d="M601.4 654.6L374.7 455.1 223.8 644.5 162 595.3l203.3-254.5 227.9 201.4L900.1 176l60 50.5-358.7 428.1z"  /></svg>